# xmcd
#
# Track frame offsets: 
#        150
#        16569
#        32363
#        46138
#        59774
#        77867
#        94842
#        113057
#        129313
#        148478
#        162589
#        182186
#
# Disc length: 2644 seconds
#
# Revision: 0
# Processed by: cddbd v1.5.2PL0 Copyright (c) Steve Scherf et al.
# Submitted via: ExactAudioCopy v0.99pb3
#
DISCID=9f0a520c
DTITLE=Charly Schreckschuss Band - Ne Menge Leben
DYEAR=2007
DGENRE=Blues
TTITLE0=ne Menge Leben
TTITLE1=Geisterbahn
TTITLE2=Gedeckte Apfeltorte
TTITLE3=Zuckerpuppe
TTITLE4=Tosom
TTITLE5=Avernakö
TTITLE6=Zeit
TTITLE7=Jetzt küsst mi nur noch de Blues
TTITLE8=Versteihst du disse Leed
TTITLE9=Sommersalat
TTITLE10=Ich will raus
TTITLE11=Mir fehlen die Worte
EXTD=
EXTT0=
EXTT1=
EXTT2=
EXTT3=
EXTT4=
EXTT5=
EXTT6=
EXTT7=
EXTT8=
EXTT9=
EXTT10=
EXTT11=
PLAYORDER=
